<svg xmlns="http://www.w3.org/2000/svg" xmlns:xlink="http://www.w3.org/1999/xlink" width="500" zoomAndPan="magnify" viewBox="0 0 375 374.999991" height="500" preserveAspectRatio="xMidYMid meet" version="1.0"><defs><clipPath id="4ca063792f"><path d="M 55.285156 72.433594 L 319.714844 72.433594 L 319.714844 351 L 55.285156 351 Z M 55.285156 72.433594 " clip-rule="nonzero"/></clipPath><clipPath id="4ea02754d3"><path d="M 187.5 72.433594 C 114.480469 72.433594 55.285156 134.71875 55.285156 211.550781 C 55.285156 288.382812 114.480469 350.667969 187.5 350.667969 C 260.519531 350.667969 319.714844 288.382812 319.714844 211.550781 C 319.714844 134.71875 260.519531 72.433594 187.5 72.433594 Z M 187.5 72.433594 " clip-rule="nonzero"/></clipPath><clipPath id="35bf697a5e"><path d="M 64.984375 112 L 310.015625 112 L 310.015625 356.582031 L 64.984375 356.582031 Z M 64.984375 112 " clip-rule="nonzero"/></clipPath><clipPath id="a12b307845"><path d="M 146.707031 120.472656 C 159.226562 115.664062 173.550781 112.507812 187.566406 112.507812 C 201.582031 112.507812 215.070312 115.210938 227.5 120.019531 C 227.765625 120.171875 228.03125 120.171875 228.292969 120.320312 C 274.972656 139.554688 309.355469 190.347656 310.015625 247.585938 L 310.015625 356.582031 L 64.984375 356.582031 L 64.984375 247.664062 C 65.644531 190.046875 99.5 139.253906 146.707031 120.472656 Z M 146.707031 120.472656 " clip-rule="nonzero"/></clipPath><clipPath id="fef52079a9"><path d="M 131.25 155.453125 L 243.882812 155.453125 L 243.882812 267.648438 L 131.25 267.648438 Z M 131.25 155.453125 " clip-rule="nonzero"/></clipPath><clipPath id="5bc8baac40"><path d="M 187.5 155.453125 L 205.398438 193.699219 L 243.75 211.550781 L 205.398438 229.398438 L 187.5 267.648438 L 169.601562 229.398438 L 131.25 211.550781 L 169.601562 193.699219 Z M 187.5 155.453125 " clip-rule="nonzero"/></clipPath><clipPath id="b312b99c89"><path d="M 37.5 228.570312 L 101.335938 228.570312 L 101.335938 306.871094 L 37.5 306.871094 Z M 37.5 228.570312 " clip-rule="nonzero"/></clipPath><clipPath id="968809f2e0"><path d="M 54.75 228.570312 L 84.085938 228.570312 C 88.660156 228.570312 93.046875 230.390625 96.285156 233.625 C 99.519531 236.859375 101.335938 241.246094 101.335938 245.820312 L 101.335938 289.472656 C 101.335938 294.046875 99.519531 298.433594 96.285156 301.667969 C 93.046875 304.902344 88.660156 306.722656 84.085938 306.722656 L 54.75 306.722656 C 50.175781 306.722656 45.789062 304.902344 42.550781 301.667969 C 39.316406 298.433594 37.5 294.046875 37.5 289.472656 L 37.5 245.820312 C 37.5 241.246094 39.316406 236.859375 42.550781 233.625 C 45.789062 230.390625 50.175781 228.570312 54.75 228.570312 Z M 54.75 228.570312 " clip-rule="nonzero"/></clipPath><clipPath id="ff7da5e65e"><path d="M 273.664062 228.570312 L 337.5 228.570312 L 337.5 306.871094 L 273.664062 306.871094 Z M 273.664062 228.570312 " clip-rule="nonzero"/></clipPath><clipPath id="a38f806234"><path d="M 290.914062 228.570312 L 320.25 228.570312 C 324.824219 228.570312 329.210938 230.390625 332.449219 233.625 C 335.683594 236.859375 337.5 241.246094 337.5 245.820312 L 337.5 289.472656 C 337.5 294.046875 335.683594 298.433594 332.449219 301.667969 C 329.210938 304.902344 324.824219 306.722656 320.25 306.722656 L 290.914062 306.722656 C 286.339844 306.722656 281.953125 304.902344 278.714844 301.667969 C 275.480469 298.433594 273.664062 294.046875 273.664062 289.472656 L 273.664062 245.820312 C 273.664062 241.246094 275.480469 236.859375 278.714844 233.625 C 281.953125 230.390625 286.339844 228.570312 290.914062 228.570312 Z M 290.914062 228.570312 " clip-rule="nonzero"/></clipPath><clipPath id="6ab1a47e21"><path d="M 0 218 L 122 218 L 122 343 L 0 343 Z M 0 218 " clip-rule="nonzero"/></clipPath><clipPath id="05431bc8bc"><path d="M 62.160156 211.550781 L 128.234375 282.648438 L 57.136719 348.722656 L -8.9375 277.625 Z M 62.160156 211.550781 " clip-rule="nonzero"/></clipPath><clipPath id="6057304d4c"><path d="M 121.777344 275.703125 L 68.617188 218.496094 C 64.792969 222.050781 58.796875 221.863281 55.210938 218.007812 L -1.992188 271.167969 C 1.5625 274.992188 1.375 280.988281 -2.480469 284.574219 L 50.679688 341.777344 C 54.503906 338.222656 60.5 338.410156 64.082031 342.265625 L 121.289062 289.105469 C 117.734375 285.28125 117.921875 279.285156 121.777344 275.703125 Z M 121.777344 275.703125 " clip-rule="nonzero"/></clipPath><clipPath id="b1e3d042ed"><path d="M 247 218 L 373 218 L 373 343 L 247 343 Z M 247 218 " clip-rule="nonzero"/></clipPath><clipPath id="76083619fd"><path d="M 312.523438 211.550781 L 378.597656 282.648438 L 307.5 348.722656 L 241.425781 277.625 Z M 312.523438 211.550781 " clip-rule="nonzero"/></clipPath><clipPath id="53459bdd73"><path d="M 372.140625 275.703125 L 318.980469 218.496094 C 315.15625 222.050781 309.160156 221.863281 305.578125 218.007812 L 248.375 271.167969 C 251.925781 274.992188 251.738281 280.988281 247.882812 284.574219 L 301.042969 341.777344 C 304.867188 338.222656 310.863281 338.410156 314.449219 342.265625 L 371.652344 289.105469 C 368.097656 285.28125 368.285156 279.285156 372.140625 275.703125 Z M 372.140625 275.703125 " clip-rule="nonzero"/></clipPath></defs><rect x="-37.5" width="450" fill="#ffffff" y="-37.499999" height="449.999989" fill-opacity="1"/><rect x="-37.5" width="450" fill="#3f4959" y="-37.499999" height="449.999989" fill-opacity="1"/><g clip-path="url(#4ca063792f)"><g clip-path="url(#4ea02754d3)"><path fill="#ee964b" d="M 55.285156 72.433594 L 319.714844 72.433594 L 319.714844 350.289062 L 55.285156 350.289062 Z M 55.285156 72.433594 " fill-opacity="1" fill-rule="nonzero"/></g></g><g clip-path="url(#35bf697a5e)"><g clip-path="url(#a12b307845)"><path fill="#3f4959" d="M 64.984375 112.507812 L 310.015625 112.507812 L 310.015625 356.582031 L 64.984375 356.582031 Z M 64.984375 112.507812 " fill-opacity="1" fill-rule="nonzero"/></g></g><g clip-path="url(#fef52079a9)"><g clip-path="url(#5bc8baac40)"><path fill="#ee964b" d="M 131.25 155.453125 L 243.882812 155.453125 L 243.882812 267.648438 L 131.25 267.648438 Z M 131.25 155.453125 " fill-opacity="1" fill-rule="nonzero"/></g></g><g clip-path="url(#b312b99c89)"><g clip-path="url(#968809f2e0)"><path fill="#3f4959" d="M 37.5 228.570312 L 101.335938 228.570312 L 101.335938 306.621094 L 37.5 306.621094 Z M 37.5 228.570312 " fill-opacity="1" fill-rule="nonzero"/></g></g><g clip-path="url(#ff7da5e65e)"><g clip-path="url(#a38f806234)"><path fill="#3f4959" d="M 273.664062 228.570312 L 337.5 228.570312 L 337.5 306.621094 L 273.664062 306.621094 Z M 273.664062 228.570312 " fill-opacity="1" fill-rule="nonzero"/></g></g><g clip-path="url(#6ab1a47e21)"><g clip-path="url(#05431bc8bc)"><g clip-path="url(#6057304d4c)"><path fill="#3f4959" d="M 62.160156 211.550781 L 128.234375 282.648438 L 57.136719 348.722656 L -8.9375 277.625 Z M 62.160156 211.550781 " fill-opacity="1" fill-rule="nonzero"/></g></g></g><g clip-path="url(#b1e3d042ed)"><g clip-path="url(#76083619fd)"><g clip-path="url(#53459bdd73)"><path fill="#3f4959" d="M 312.523438 211.550781 L 378.597656 282.648438 L 307.5 348.722656 L 241.425781 277.625 Z M 312.523438 211.550781 " fill-opacity="1" fill-rule="nonzero"/></g></g></g></svg>